<svg xmlns="http://www.w3.org/2000/svg" width="920" height="520" viewBox="0 0 920 520">
<rect width="100%" height="100%" fill="white"/>
<text x="80" y="28" font-family="Arial" font-size="20" font-weight="700">almost_sorted: character operations</text>
<line x1="80" y1="450" x2="680" y2="450" stroke="#333"/>
<line x1="80" y1="45" x2="80" y2="450" stroke="#333"/>
<line x1="80" y1="450.0" x2="680" y2="450.0" stroke="#e6e6e6"/>
<text x="72" y="454.0" font-family="Arial" font-size="11" text-anchor="end">0</text>
<line x1="80" y1="369.0" x2="680" y2="369.0" stroke="#e6e6e6"/>
<text x="72" y="373.0" font-family="Arial" font-size="11" text-anchor="end">41244</text>
<line x1="80" y1="288.0" x2="680" y2="288.0" stroke="#e6e6e6"/>
<text x="72" y="292.0" font-family="Arial" font-size="11" text-anchor="end">82488</text>
<line x1="80" y1="207.0" x2="680" y2="207.0" stroke="#e6e6e6"/>
<text x="72" y="211.0" font-family="Arial" font-size="11" text-anchor="end">123733</text>
<line x1="80" y1="126.0" x2="680" y2="126.0" stroke="#e6e6e6"/>
<text x="72" y="130.0" font-family="Arial" font-size="11" text-anchor="end">164977</text>
<line x1="80" y1="45.0" x2="680" y2="45.0" stroke="#e6e6e6"/>
<text x="72" y="49.0" font-family="Arial" font-size="11" text-anchor="end">206221</text>
<line x1="80.0" y1="450" x2="80.0" y2="455" stroke="#333"/>
<text x="80.0" y="474" font-family="Arial" font-size="11" text-anchor="middle">100</text>
<line x1="162.8" y1="450" x2="162.8" y2="455" stroke="#333"/>
<text x="162.8" y="474" font-family="Arial" font-size="11" text-anchor="middle">500</text>
<line x1="266.2" y1="450" x2="266.2" y2="455" stroke="#333"/>
<text x="266.2" y="474" font-family="Arial" font-size="11" text-anchor="middle">1000</text>
<line x1="369.7" y1="450" x2="369.7" y2="455" stroke="#333"/>
<text x="369.7" y="474" font-family="Arial" font-size="11" text-anchor="middle">1500</text>
<line x1="473.1" y1="450" x2="473.1" y2="455" stroke="#333"/>
<text x="473.1" y="474" font-family="Arial" font-size="11" text-anchor="middle">2000</text>
<line x1="576.6" y1="450" x2="576.6" y2="455" stroke="#333"/>
<text x="576.6" y="474" font-family="Arial" font-size="11" text-anchor="middle">2500</text>
<line x1="680.0" y1="450" x2="680.0" y2="455" stroke="#333"/>
<text x="680.0" y="474" font-family="Arial" font-size="11" text-anchor="middle">3000</text>
<polyline points="80.0,446.4 100.7,441.2 121.4,434.5 142.1,426.9 162.8,418.0 183.4,410.3 204.1,399.6 224.8,388.6 245.5,377.4 266.2,366.4 286.9,353.7 307.6,341.4 328.3,327.7 349.0,314.5 369.7,300.9 390.3,294.2 411.0,277.5 431.7,263.6 452.4,249.9 473.1,235.6 493.8,219.5 514.5,206.2 535.2,190.2 555.9,173.4 576.6,153.7 597.2,135.3 617.9,113.5 638.6,96.4 659.3,75.0 680.0,77.8" fill="none" stroke="#1f77b4" stroke-width="2.2"/>
<polyline points="80.0,448.7 100.7,446.9 121.4,445.1 142.1,443.2 162.8,441.2 183.4,439.1 204.1,436.6 224.8,434.4 245.5,432.0 266.2,429.8 286.9,427.8 307.6,425.7 328.3,423.5 349.0,420.8 369.7,418.8 390.3,416.5 411.0,413.8 431.7,410.8 452.4,408.9 473.1,406.0 493.8,403.3 514.5,401.4 535.2,398.6 555.9,397.8 576.6,394.2 597.2,392.2 617.9,390.2 638.6,388.4 659.3,386.8 680.0,384.8" fill="none" stroke="#ff7f0e" stroke-width="2.2"/>
<polyline points="80.0,448.2 100.7,446.1 121.4,443.6 142.1,440.4 162.8,437.0 183.4,433.3 204.1,428.9 224.8,424.1 245.5,418.8 266.2,413.1 286.9,406.3 307.6,399.4 328.3,391.8 349.0,383.3 369.7,374.3 390.3,363.7 411.0,353.9 431.7,343.4 452.4,332.2 473.1,322.3 493.8,309.8 514.5,301.3 535.2,291.0 555.9,279.8 576.6,262.4 597.2,249.6 617.9,287.6 638.6,278.5 659.3,269.7 680.0,211.1" fill="none" stroke="#2ca02c" stroke-width="2.2"/>
<polyline points="80.0,448.0 100.7,445.0 121.4,441.9 142.1,438.8 162.8,435.4 183.4,431.9 204.1,427.8 224.8,423.6 245.5,419.6 266.2,415.9 286.9,412.5 307.6,408.7 328.3,404.9 349.0,400.3 369.7,396.7 390.3,392.7 411.0,387.9 431.7,382.9 452.4,379.9 473.1,374.8 493.8,370.2 514.5,366.9 535.2,362.0 555.9,360.8 576.6,354.4 597.2,350.5 617.9,347.3 638.6,344.5 659.3,341.8 680.0,338.3" fill="none" stroke="#d62728" stroke-width="2.2"/>
<polyline points="80.0,449.1 100.7,448.1 121.4,447.1 142.1,446.2 162.8,445.2 183.4,444.3 204.1,443.3 224.8,442.3 245.5,441.4 266.2,440.4 286.9,439.4 307.6,438.5 328.3,437.6 349.0,436.6 369.7,435.7 390.3,434.8 411.0,433.8 431.7,432.8 452.4,431.9 473.1,431.0 493.8,430.0 514.5,429.1 535.2,428.1 555.9,427.2 576.6,426.3 597.2,425.3 617.9,424.4 638.6,423.4 659.3,422.5 680.0,421.6" fill="none" stroke="#9467bd" stroke-width="2.2"/>
<polyline points="80.0,448.1 100.7,446.3 121.4,444.6 142.1,442.7 162.8,441.0 183.4,439.1 204.1,437.3 224.8,435.4 245.5,433.5 266.2,431.7 286.9,429.9 307.6,428.1 328.3,426.2 349.0,424.5 369.7,422.7 390.3,421.1 411.0,419.4 431.7,417.6 452.4,415.6 473.1,413.7 493.8,411.8 514.5,410.2 535.2,408.4 555.9,406.5 576.6,404.8 597.2,403.0 617.9,401.4 638.6,399.6 659.3,397.8 680.0,396.2" fill="none" stroke="#8c564b" stroke-width="2.2"/>
<line x1="702" y1="55" x2="734" y2="55" stroke="#1f77b4" stroke-width="3"/>
<text x="744" y="59" font-family="Arial" font-size="12">std quick</text>
<line x1="702" y1="81" x2="734" y2="81" stroke="#ff7f0e" stroke-width="3"/>
<text x="744" y="85" font-family="Arial" font-size="12">std merge</text>
<line x1="702" y1="107" x2="734" y2="107" stroke="#2ca02c" stroke-width="3"/>
<text x="744" y="111" font-family="Arial" font-size="12">str quick</text>
<line x1="702" y1="133" x2="734" y2="133" stroke="#d62728" stroke-width="3"/>
<text x="744" y="137" font-family="Arial" font-size="12">str merge</text>
<line x1="702" y1="159" x2="734" y2="159" stroke="#9467bd" stroke-width="3"/>
<text x="744" y="163" font-family="Arial" font-size="12">MSD radix</text>
<line x1="702" y1="185" x2="734" y2="185" stroke="#8c564b" stroke-width="3"/>
<text x="744" y="189" font-family="Arial" font-size="12">MSD+quick</text>
<text x="380.0" y="502" font-family="Arial" font-size="12" text-anchor="middle">array size</text>
</svg>