<svg xmlns="http://www.w3.org/2000/svg" width="920" height="520" viewBox="0 0 920 520">
<rect width="100%" height="100%" fill="white"/>
<text x="80" y="28" font-family="Arial" font-size="20" font-weight="700">common_prefix: character operations</text>
<line x1="80" y1="450" x2="680" y2="450" stroke="#333"/>
<line x1="80" y1="45" x2="80" y2="450" stroke="#333"/>
<line x1="80" y1="450.0" x2="680" y2="450.0" stroke="#e6e6e6"/>
<text x="72" y="454.0" font-family="Arial" font-size="11" text-anchor="end">0</text>
<line x1="80" y1="369.0" x2="680" y2="369.0" stroke="#e6e6e6"/>
<text x="72" y="373.0" font-family="Arial" font-size="11" text-anchor="end">185379</text>
<line x1="80" y1="288.0" x2="680" y2="288.0" stroke="#e6e6e6"/>
<text x="72" y="292.0" font-family="Arial" font-size="11" text-anchor="end">370758</text>
<line x1="80" y1="207.0" x2="680" y2="207.0" stroke="#e6e6e6"/>
<text x="72" y="211.0" font-family="Arial" font-size="11" text-anchor="end">556138</text>
<line x1="80" y1="126.0" x2="680" y2="126.0" stroke="#e6e6e6"/>
<text x="72" y="130.0" font-family="Arial" font-size="11" text-anchor="end">741517</text>
<line x1="80" y1="45.0" x2="680" y2="45.0" stroke="#e6e6e6"/>
<text x="72" y="49.0" font-family="Arial" font-size="11" text-anchor="end">926897</text>
<line x1="80.0" y1="450" x2="80.0" y2="455" stroke="#333"/>
<text x="80.0" y="474" font-family="Arial" font-size="11" text-anchor="middle">100</text>
<line x1="162.8" y1="450" x2="162.8" y2="455" stroke="#333"/>
<text x="162.8" y="474" font-family="Arial" font-size="11" text-anchor="middle">500</text>
<line x1="266.2" y1="450" x2="266.2" y2="455" stroke="#333"/>
<text x="266.2" y="474" font-family="Arial" font-size="11" text-anchor="middle">1000</text>
<line x1="369.7" y1="450" x2="369.7" y2="455" stroke="#333"/>
<text x="369.7" y="474" font-family="Arial" font-size="11" text-anchor="middle">1500</text>
<line x1="473.1" y1="450" x2="473.1" y2="455" stroke="#333"/>
<text x="473.1" y="474" font-family="Arial" font-size="11" text-anchor="middle">2000</text>
<line x1="576.6" y1="450" x2="576.6" y2="455" stroke="#333"/>
<text x="576.6" y="474" font-family="Arial" font-size="11" text-anchor="middle">2500</text>
<line x1="680.0" y1="450" x2="680.0" y2="455" stroke="#333"/>
<text x="680.0" y="474" font-family="Arial" font-size="11" text-anchor="middle">3000</text>
<polyline points="80.0,444.7 100.7,436.2 121.4,424.6 142.1,417.9 162.8,407.0 183.4,395.4 204.1,386.7 224.8,376.4 245.5,366.4 266.2,352.5 286.9,339.9 307.6,326.7 328.3,310.7 349.0,303.2 369.7,293.1 390.3,283.9 411.0,262.5 431.7,240.6 452.4,242.9 473.1,215.7 493.8,209.4 514.5,190.0 535.2,186.6 555.9,175.5 576.6,172.3 597.2,132.9 617.9,147.8 638.6,118.9 659.3,114.4 680.0,75.0" fill="none" stroke="#1f77b4" stroke-width="2.2"/>
<polyline points="80.0,445.0 100.7,438.1 121.4,430.6 142.1,422.3 162.8,414.0 183.4,405.4 204.1,396.4 224.8,387.1 245.5,378.2 266.2,368.7 286.9,359.2 307.6,349.3 328.3,339.3 349.0,329.6 369.7,319.7 390.3,309.3 411.0,299.2 431.7,289.1 452.4,278.5 473.1,268.5 493.8,258.1 514.5,247.2 535.2,236.7 555.9,225.7 576.6,215.0 597.2,203.7 617.9,193.5 638.6,182.1 659.3,170.9 680.0,160.4" fill="none" stroke="#ff7f0e" stroke-width="2.2"/>
<polyline points="80.0,448.8 100.7,447.6 121.4,446.3 142.1,445.0 162.8,443.6 183.4,442.0 204.1,440.6 224.8,439.6 245.5,438.4 266.2,436.7 286.9,435.6 307.6,434.2 328.3,432.3 349.0,431.4 369.7,429.8 390.3,428.8 411.0,426.7 431.7,425.4 452.4,424.9 473.1,422.5 493.8,420.9 514.5,419.6 535.2,417.6 555.9,417.2 576.6,415.5 597.2,414.6 617.9,413.5 638.6,411.1 659.3,410.0 680.0,408.6" fill="none" stroke="#2ca02c" stroke-width="2.2"/>
<polyline points="80.0,444.7 100.7,437.5 121.4,429.7 142.1,421.0 162.8,412.4 183.4,403.3 204.1,393.8 224.8,384.2 245.5,374.8 266.2,364.9 286.9,355.0 307.6,344.6 328.3,334.1 349.0,324.0 369.7,313.6 390.3,302.7 411.0,292.2 431.7,281.6 452.4,270.5 473.1,260.0 493.8,249.1 514.5,237.8 535.2,226.7 555.9,215.2 576.6,204.0 597.2,192.2 617.9,181.6 638.6,169.6 659.3,157.9 680.0,146.9" fill="none" stroke="#d62728" stroke-width="2.2"/>
<polyline points="80.0,448.1 100.7,446.2 121.4,444.2 142.1,442.3 162.8,440.3 183.4,438.4 204.1,436.5 224.8,434.5 245.5,432.6 266.2,430.6 286.9,428.7 307.6,426.7 328.3,424.8 349.0,422.8 369.7,420.8 390.3,418.9 411.0,416.9 431.7,415.0 452.4,413.0 473.1,411.0 493.8,409.0 514.5,407.0 535.2,405.1 555.9,403.1 576.6,401.1 597.2,399.1 617.9,397.1 638.6,395.2 659.3,393.2 680.0,391.2" fill="none" stroke="#9467bd" stroke-width="2.2"/>
<polyline points="80.0,448.1 100.7,446.2 121.4,444.2 142.1,442.2 162.8,440.2 183.4,438.2 204.1,436.2 224.8,434.2 245.5,432.1 266.2,430.1 286.9,428.0 307.6,425.9 328.3,423.8 349.0,421.7 369.7,419.6 390.3,417.6 411.0,415.5 431.7,413.4 452.4,411.3 473.1,409.1 493.8,407.0 514.5,404.9 535.2,402.8 555.9,400.7 576.6,398.6 597.2,396.4 617.9,394.3 638.6,392.2 659.3,390.0 680.0,387.9" fill="none" stroke="#8c564b" stroke-width="2.2"/>
<line x1="702" y1="55" x2="734" y2="55" stroke="#1f77b4" stroke-width="3"/>
<text x="744" y="59" font-family="Arial" font-size="12">std quick</text>
<line x1="702" y1="81" x2="734" y2="81" stroke="#ff7f0e" stroke-width="3"/>
<text x="744" y="85" font-family="Arial" font-size="12">std merge</text>
<line x1="702" y1="107" x2="734" y2="107" stroke="#2ca02c" stroke-width="3"/>
<text x="744" y="111" font-family="Arial" font-size="12">str quick</text>
<line x1="702" y1="133" x2="734" y2="133" stroke="#d62728" stroke-width="3"/>
<text x="744" y="137" font-family="Arial" font-size="12">str merge</text>
<line x1="702" y1="159" x2="734" y2="159" stroke="#9467bd" stroke-width="3"/>
<text x="744" y="163" font-family="Arial" font-size="12">MSD radix</text>
<line x1="702" y1="185" x2="734" y2="185" stroke="#8c564b" stroke-width="3"/>
<text x="744" y="189" font-family="Arial" font-size="12">MSD+quick</text>
<text x="380.0" y="502" font-family="Arial" font-size="12" text-anchor="middle">array size</text>
</svg>