<svg xmlns="http://www.w3.org/2000/svg" width="920" height="520" viewBox="0 0 920 520">
<rect width="100%" height="100%" fill="white"/>
<text x="80" y="28" font-family="Arial" font-size="20" font-weight="700">common_prefix: time, microseconds</text>
<line x1="80" y1="450" x2="680" y2="450" stroke="#333"/>
<line x1="80" y1="45" x2="80" y2="450" stroke="#333"/>
<line x1="80" y1="450.0" x2="680" y2="450.0" stroke="#e6e6e6"/>
<text x="72" y="454.0" font-family="Arial" font-size="11" text-anchor="end">0</text>
<line x1="80" y1="369.0" x2="680" y2="369.0" stroke="#e6e6e6"/>
<text x="72" y="373.0" font-family="Arial" font-size="11" text-anchor="end">269</text>
<line x1="80" y1="288.0" x2="680" y2="288.0" stroke="#e6e6e6"/>
<text x="72" y="292.0" font-family="Arial" font-size="11" text-anchor="end">539</text>
<line x1="80" y1="207.0" x2="680" y2="207.0" stroke="#e6e6e6"/>
<text x="72" y="211.0" font-family="Arial" font-size="11" text-anchor="end">808</text>
<line x1="80" y1="126.0" x2="680" y2="126.0" stroke="#e6e6e6"/>
<text x="72" y="130.0" font-family="Arial" font-size="11" text-anchor="end">1078</text>
<line x1="80" y1="45.0" x2="680" y2="45.0" stroke="#e6e6e6"/>
<text x="72" y="49.0" font-family="Arial" font-size="11" text-anchor="end">1347</text>
<line x1="80.0" y1="450" x2="80.0" y2="455" stroke="#333"/>
<text x="80.0" y="474" font-family="Arial" font-size="11" text-anchor="middle">100</text>
<line x1="162.8" y1="450" x2="162.8" y2="455" stroke="#333"/>
<text x="162.8" y="474" font-family="Arial" font-size="11" text-anchor="middle">500</text>
<line x1="266.2" y1="450" x2="266.2" y2="455" stroke="#333"/>
<text x="266.2" y="474" font-family="Arial" font-size="11" text-anchor="middle">1000</text>
<line x1="369.7" y1="450" x2="369.7" y2="455" stroke="#333"/>
<text x="369.7" y="474" font-family="Arial" font-size="11" text-anchor="middle">1500</text>
<line x1="473.1" y1="450" x2="473.1" y2="455" stroke="#333"/>
<text x="473.1" y="474" font-family="Arial" font-size="11" text-anchor="middle">2000</text>
<line x1="576.6" y1="450" x2="576.6" y2="455" stroke="#333"/>
<text x="576.6" y="474" font-family="Arial" font-size="11" text-anchor="middle">2500</text>
<line x1="680.0" y1="450" x2="680.0" y2="455" stroke="#333"/>
<text x="680.0" y="474" font-family="Arial" font-size="11" text-anchor="middle">3000</text>
<polyline points="80.0,446.1 100.7,440.1 121.4,432.6 142.1,426.9 162.8,420.0 183.4,410.9 204.1,403.1 224.8,404.6 245.5,395.9 266.2,389.6 286.9,383.6 307.6,375.8 328.3,367.1 349.0,362.0 369.7,354.1 390.3,349.0 411.0,338.8 431.7,325.6 452.4,323.2 473.1,311.5 493.8,306.1 514.5,297.1 535.2,291.6 555.9,286.2 576.6,283.2 597.2,263.4 617.9,264.9 638.6,253.8 659.3,249.3 680.0,230.0" fill="none" stroke="#1f77b4" stroke-width="2.2"/>
<polyline points="80.0,442.2 100.7,433.2 121.4,421.2 142.1,409.1 162.8,397.1 183.4,380.3 204.1,367.7 224.8,369.2 245.5,363.2 266.2,347.5 286.9,334.3 307.6,322.6 328.3,309.1 349.0,295.6 369.7,281.1 390.3,269.4 411.0,257.4 431.7,245.4 452.4,230.9 473.1,218.0 493.8,203.9 514.5,190.4 535.2,176.6 555.9,161.2 576.6,150.1 597.2,134.2 617.9,123.1 638.6,112.3 659.3,96.6 680.0,82.8" fill="none" stroke="#ff7f0e" stroke-width="2.2"/>
<polyline points="80.0,449.1 100.7,447.9 121.4,446.4 142.1,445.2 162.8,443.7 183.4,442.2 204.1,440.7 224.8,441.0 245.5,440.1 266.2,438.3 286.9,437.1 307.6,435.9 328.3,434.1 349.0,432.3 369.7,431.4 390.3,429.3 411.0,427.8 431.7,425.1 452.4,423.9 473.1,422.4 493.8,420.0 514.5,417.8 535.2,415.7 555.9,413.9 576.6,412.4 597.2,409.4 617.9,407.6 638.6,405.8 659.3,403.4 680.0,400.4" fill="none" stroke="#2ca02c" stroke-width="2.2"/>
<polyline points="80.0,442.5 100.7,432.0 121.4,420.3 142.1,407.3 162.8,393.8 183.4,379.4 204.1,366.2 224.8,365.6 245.5,357.2 266.2,344.5 286.9,332.5 307.6,319.3 328.3,306.1 349.0,294.1 369.7,279.9 390.3,266.7 411.0,254.7 431.7,240.9 452.4,227.3 473.1,214.1 493.8,200.3 514.5,183.2 535.2,170.6 555.9,158.2 576.6,140.8 597.2,130.6 617.9,115.0 638.6,106.3 659.3,87.0 680.0,75.0" fill="none" stroke="#d62728" stroke-width="2.2"/>
<polyline points="80.0,434.7 100.7,423.0 121.4,410.3 142.1,398.6 162.8,389.9 183.4,374.6 204.1,370.4 224.8,371.0 245.5,363.5 266.2,357.5 286.9,347.5 307.6,337.3 328.3,325.6 349.0,314.8 369.7,304.0 390.3,296.5 411.0,285.0 431.7,275.4 452.4,264.0 473.1,255.6 493.8,240.9 514.5,230.9 535.2,218.0 555.9,205.7 576.6,196.4 597.2,183.5 617.9,172.7 638.6,162.4 659.3,150.4 680.0,137.5" fill="none" stroke="#9467bd" stroke-width="2.2"/>
<polyline points="80.0,439.2 100.7,433.2 121.4,425.1 142.1,417.2 162.8,408.2 183.4,398.0 204.1,400.4 224.8,390.8 245.5,387.5 266.2,380.3 286.9,374.3 307.6,364.7 328.3,359.3 349.0,350.8 369.7,347.5 390.3,338.8 411.0,332.5 431.7,324.1 452.4,318.1 473.1,313.6 493.8,305.5 514.5,297.4 535.2,289.2 555.9,282.0 576.6,278.4 597.2,272.1 617.9,265.8 638.6,255.9 659.3,251.7 680.0,242.7" fill="none" stroke="#8c564b" stroke-width="2.2"/>
<line x1="702" y1="55" x2="734" y2="55" stroke="#1f77b4" stroke-width="3"/>
<text x="744" y="59" font-family="Arial" font-size="12">std quick</text>
<line x1="702" y1="81" x2="734" y2="81" stroke="#ff7f0e" stroke-width="3"/>
<text x="744" y="85" font-family="Arial" font-size="12">std merge</text>
<line x1="702" y1="107" x2="734" y2="107" stroke="#2ca02c" stroke-width="3"/>
<text x="744" y="111" font-family="Arial" font-size="12">str quick</text>
<line x1="702" y1="133" x2="734" y2="133" stroke="#d62728" stroke-width="3"/>
<text x="744" y="137" font-family="Arial" font-size="12">str merge</text>
<line x1="702" y1="159" x2="734" y2="159" stroke="#9467bd" stroke-width="3"/>
<text x="744" y="163" font-family="Arial" font-size="12">MSD radix</text>
<line x1="702" y1="185" x2="734" y2="185" stroke="#8c564b" stroke-width="3"/>
<text x="744" y="189" font-family="Arial" font-size="12">MSD+quick</text>
<text x="380.0" y="502" font-family="Arial" font-size="12" text-anchor="middle">array size</text>
</svg>