<svg xmlns="http://www.w3.org/2000/svg" width="920" height="520" viewBox="0 0 920 520">
<rect width="100%" height="100%" fill="white"/>
<text x="80" y="28" font-family="Arial" font-size="20" font-weight="700">random: character operations</text>
<line x1="80" y1="450" x2="680" y2="450" stroke="#333"/>
<line x1="80" y1="45" x2="80" y2="450" stroke="#333"/>
<line x1="80" y1="450.0" x2="680" y2="450.0" stroke="#e6e6e6"/>
<text x="72" y="454.0" font-family="Arial" font-size="11" text-anchor="end">0</text>
<line x1="80" y1="369.0" x2="680" y2="369.0" stroke="#e6e6e6"/>
<text x="72" y="373.0" font-family="Arial" font-size="11" text-anchor="end">16283</text>
<line x1="80" y1="288.0" x2="680" y2="288.0" stroke="#e6e6e6"/>
<text x="72" y="292.0" font-family="Arial" font-size="11" text-anchor="end">32567</text>
<line x1="80" y1="207.0" x2="680" y2="207.0" stroke="#e6e6e6"/>
<text x="72" y="211.0" font-family="Arial" font-size="11" text-anchor="end">48851</text>
<line x1="80" y1="126.0" x2="680" y2="126.0" stroke="#e6e6e6"/>
<text x="72" y="130.0" font-family="Arial" font-size="11" text-anchor="end">65135</text>
<line x1="80" y1="45.0" x2="680" y2="45.0" stroke="#e6e6e6"/>
<text x="72" y="49.0" font-family="Arial" font-size="11" text-anchor="end">81419</text>
<line x1="80.0" y1="450" x2="80.0" y2="455" stroke="#333"/>
<text x="80.0" y="474" font-family="Arial" font-size="11" text-anchor="middle">100</text>
<line x1="162.8" y1="450" x2="162.8" y2="455" stroke="#333"/>
<text x="162.8" y="474" font-family="Arial" font-size="11" text-anchor="middle">500</text>
<line x1="266.2" y1="450" x2="266.2" y2="455" stroke="#333"/>
<text x="266.2" y="474" font-family="Arial" font-size="11" text-anchor="middle">1000</text>
<line x1="369.7" y1="450" x2="369.7" y2="455" stroke="#333"/>
<text x="369.7" y="474" font-family="Arial" font-size="11" text-anchor="middle">1500</text>
<line x1="473.1" y1="450" x2="473.1" y2="455" stroke="#333"/>
<text x="473.1" y="474" font-family="Arial" font-size="11" text-anchor="middle">2000</text>
<line x1="576.6" y1="450" x2="576.6" y2="455" stroke="#333"/>
<text x="576.6" y="474" font-family="Arial" font-size="11" text-anchor="middle">2500</text>
<line x1="680.0" y1="450" x2="680.0" y2="455" stroke="#333"/>
<text x="680.0" y="474" font-family="Arial" font-size="11" text-anchor="middle">3000</text>
<polyline points="80.0,446.5 100.7,441.7 121.4,434.6 142.1,429.7 162.8,422.8 183.4,413.7 204.1,407.9 224.8,397.9 245.5,393.1 266.2,381.6 286.9,376.3 307.6,364.6 328.3,357.1 349.0,348.0 369.7,340.1 390.3,329.4 411.0,314.9 431.7,312.9 452.4,298.1 473.1,290.0 493.8,273.5 514.5,272.7 535.2,262.0 555.9,240.0 576.6,243.1 597.2,230.0 617.9,215.9 638.6,210.5 659.3,191.1 680.0,185.3" fill="none" stroke="#1f77b4" stroke-width="2.2"/>
<polyline points="80.0,446.9 100.7,442.4 121.4,437.3 142.1,431.8 162.8,425.9 183.4,419.6 204.1,412.9 224.8,406.4 245.5,399.3 266.2,392.4 286.9,385.1 307.6,377.5 328.3,370.1 349.0,362.4 369.7,354.9 390.3,347.1 411.0,339.0 431.7,330.7 452.4,323.0 473.1,314.8 493.8,306.5 514.5,297.9 535.2,289.7 555.9,281.0 576.6,272.4 597.2,263.9 617.9,254.9 638.6,246.1 659.3,237.4 680.0,228.9" fill="none" stroke="#ff7f0e" stroke-width="2.2"/>
<polyline points="80.0,446.5 100.7,442.7 121.4,437.2 142.1,433.3 162.8,428.2 183.4,422.3 204.1,419.0 224.8,412.4 245.5,405.9 266.2,400.2 286.9,392.6 307.6,389.1 328.3,383.0 349.0,379.3 369.7,373.2 390.3,366.4 411.0,355.1 431.7,353.7 452.4,347.5 473.1,339.3 493.8,329.3 514.5,329.1 535.2,322.6 555.9,308.5 576.6,307.2 597.2,304.5 617.9,296.3 638.6,288.1 659.3,285.3 680.0,274.0" fill="none" stroke="#2ca02c" stroke-width="2.2"/>
<polyline points="80.0,444.2 100.7,436.0 121.4,426.7 142.1,417.1 162.8,406.7 183.4,395.6 204.1,384.1 224.8,372.8 245.5,360.8 266.2,349.0 286.9,336.5 307.6,323.7 328.3,311.0 349.0,298.0 369.7,285.4 390.3,272.3 411.0,258.7 431.7,244.9 452.4,231.6 473.1,218.0 493.8,204.1 514.5,189.7 535.2,176.1 555.9,161.6 576.6,147.4 597.2,133.0 617.9,118.1 638.6,103.6 659.3,89.1 680.0,75.0" fill="none" stroke="#d62728" stroke-width="2.2"/>
<polyline points="80.0,448.2 100.7,446.0 121.4,444.0 142.1,441.8 162.8,439.6 183.4,437.5 204.1,435.3 224.8,433.1 245.5,430.8 266.2,428.5 286.9,426.2 307.6,423.9 328.3,421.4 349.0,419.1 369.7,416.5 390.3,414.1 411.0,411.5 431.7,409.0 452.4,406.4 473.1,403.9 493.8,401.4 514.5,398.8 535.2,396.1 555.9,393.6 576.6,391.0 597.2,388.3 617.9,385.5 638.6,382.8 659.3,380.0 680.0,377.3" fill="none" stroke="#9467bd" stroke-width="2.2"/>
<polyline points="80.0,448.5 100.7,446.4 121.4,443.9 142.1,441.2 162.8,438.2 183.4,435.1 204.1,431.9 224.8,428.9 245.5,425.4 266.2,421.9 286.9,418.0 307.6,414.6 328.3,411.3 349.0,407.3 369.7,403.0 390.3,399.5 411.0,395.3 431.7,391.0 452.4,387.0 473.1,383.2 493.8,379.3 514.5,374.7 535.2,370.7 555.9,366.0 576.6,361.7 597.2,357.3 617.9,353.5 638.6,348.4 659.3,344.1 680.0,339.2" fill="none" stroke="#8c564b" stroke-width="2.2"/>
<line x1="702" y1="55" x2="734" y2="55" stroke="#1f77b4" stroke-width="3"/>
<text x="744" y="59" font-family="Arial" font-size="12">std quick</text>
<line x1="702" y1="81" x2="734" y2="81" stroke="#ff7f0e" stroke-width="3"/>
<text x="744" y="85" font-family="Arial" font-size="12">std merge</text>
<line x1="702" y1="107" x2="734" y2="107" stroke="#2ca02c" stroke-width="3"/>
<text x="744" y="111" font-family="Arial" font-size="12">str quick</text>
<line x1="702" y1="133" x2="734" y2="133" stroke="#d62728" stroke-width="3"/>
<text x="744" y="137" font-family="Arial" font-size="12">str merge</text>
<line x1="702" y1="159" x2="734" y2="159" stroke="#9467bd" stroke-width="3"/>
<text x="744" y="163" font-family="Arial" font-size="12">MSD radix</text>
<line x1="702" y1="185" x2="734" y2="185" stroke="#8c564b" stroke-width="3"/>
<text x="744" y="189" font-family="Arial" font-size="12">MSD+quick</text>
<text x="380.0" y="502" font-family="Arial" font-size="12" text-anchor="middle">array size</text>
</svg>