<svg xmlns="http://www.w3.org/2000/svg" width="920" height="520" viewBox="0 0 920 520">
<rect width="100%" height="100%" fill="white"/>
<text x="80" y="28" font-family="Arial" font-size="20" font-weight="700">random: time, microseconds</text>
<line x1="80" y1="450" x2="680" y2="450" stroke="#333"/>
<line x1="80" y1="45" x2="80" y2="450" stroke="#333"/>
<line x1="80" y1="450.0" x2="680" y2="450.0" stroke="#e6e6e6"/>
<text x="72" y="454.0" font-family="Arial" font-size="11" text-anchor="end">0</text>
<line x1="80" y1="369.0" x2="680" y2="369.0" stroke="#e6e6e6"/>
<text x="72" y="373.0" font-family="Arial" font-size="11" text-anchor="end">197</text>
<line x1="80" y1="288.0" x2="680" y2="288.0" stroke="#e6e6e6"/>
<text x="72" y="292.0" font-family="Arial" font-size="11" text-anchor="end">394</text>
<line x1="80" y1="207.0" x2="680" y2="207.0" stroke="#e6e6e6"/>
<text x="72" y="211.0" font-family="Arial" font-size="11" text-anchor="end">592</text>
<line x1="80" y1="126.0" x2="680" y2="126.0" stroke="#e6e6e6"/>
<text x="72" y="130.0" font-family="Arial" font-size="11" text-anchor="end">789</text>
<line x1="80" y1="45.0" x2="680" y2="45.0" stroke="#e6e6e6"/>
<text x="72" y="49.0" font-family="Arial" font-size="11" text-anchor="end">987</text>
<line x1="80.0" y1="450" x2="80.0" y2="455" stroke="#333"/>
<text x="80.0" y="474" font-family="Arial" font-size="11" text-anchor="middle">100</text>
<line x1="162.8" y1="450" x2="162.8" y2="455" stroke="#333"/>
<text x="162.8" y="474" font-family="Arial" font-size="11" text-anchor="middle">500</text>
<line x1="266.2" y1="450" x2="266.2" y2="455" stroke="#333"/>
<text x="266.2" y="474" font-family="Arial" font-size="11" text-anchor="middle">1000</text>
<line x1="369.7" y1="450" x2="369.7" y2="455" stroke="#333"/>
<text x="369.7" y="474" font-family="Arial" font-size="11" text-anchor="middle">1500</text>
<line x1="473.1" y1="450" x2="473.1" y2="455" stroke="#333"/>
<text x="473.1" y="474" font-family="Arial" font-size="11" text-anchor="middle">2000</text>
<line x1="576.6" y1="450" x2="576.6" y2="455" stroke="#333"/>
<text x="576.6" y="474" font-family="Arial" font-size="11" text-anchor="middle">2500</text>
<line x1="680.0" y1="450" x2="680.0" y2="455" stroke="#333"/>
<text x="680.0" y="474" font-family="Arial" font-size="11" text-anchor="middle">3000</text>
<polyline points="80.0,448.4 100.7,445.9 121.4,442.6 142.1,439.7 162.8,437.3 183.4,433.6 204.1,432.4 224.8,428.7 245.5,426.2 266.2,422.9 286.9,420.5 307.6,417.2 328.3,414.7 349.0,413.5 369.7,408.2 390.3,404.0 411.0,398.7 431.7,397.1 452.4,390.1 473.1,388.5 493.8,383.9 514.5,378.2 535.2,373.7 555.9,369.6 576.6,366.3 597.2,358.9 617.9,356.5 638.6,351.5 659.3,344.1 680.0,341.7" fill="none" stroke="#1f77b4" stroke-width="2.2"/>
<polyline points="80.0,441.8 100.7,434.8 121.4,422.1 142.1,413.9 162.8,402.0 183.4,386.8 204.1,380.3 224.8,367.1 245.5,356.0 266.2,345.8 286.9,333.9 307.6,323.6 328.3,309.3 349.0,305.6 369.7,290.4 390.3,277.7 411.0,271.1 431.7,250.2 452.4,230.5 473.1,221.5 493.8,207.9 514.5,191.5 535.2,176.3 555.9,162.8 576.6,151.7 597.2,134.5 617.9,118.1 638.6,101.3 659.3,86.1 680.0,77.1" fill="none" stroke="#ff7f0e" stroke-width="2.2"/>
<polyline points="80.0,449.6 100.7,448.8 121.4,447.5 142.1,446.3 162.8,445.5 183.4,443.8 204.1,443.0 224.8,441.4 245.5,440.2 266.2,439.3 286.9,437.7 307.6,435.6 328.3,436.5 349.0,436.1 369.7,435.6 390.3,433.2 411.0,430.7 431.7,429.1 452.4,427.8 473.1,427.0 493.8,424.2 514.5,421.7 535.2,420.9 555.9,418.8 576.6,415.5 597.2,414.3 617.9,410.2 638.6,409.8 659.3,407.3 680.0,402.8" fill="none" stroke="#2ca02c" stroke-width="2.2"/>
<polyline points="80.0,443.0 100.7,434.8 121.4,422.1 142.1,411.8 162.8,402.4 183.4,390.1 204.1,379.8 224.8,369.6 245.5,354.0 266.2,349.1 286.9,336.8 307.6,325.7 328.3,311.7 349.0,308.5 369.7,282.6 390.3,265.8 411.0,263.7 431.7,244.9 452.4,224.3 473.1,215.3 493.8,201.0 514.5,190.3 535.2,171.0 555.9,157.5 576.6,142.3 597.2,125.1 617.9,115.2 638.6,92.2 659.3,81.6 680.0,75.0" fill="none" stroke="#d62728" stroke-width="2.2"/>
<polyline points="80.0,439.7 100.7,431.5 121.4,425.8 142.1,421.7 162.8,415.1 183.4,411.0 204.1,406.1 224.8,404.0 245.5,391.7 266.2,394.2 286.9,388.0 307.6,384.4 328.3,378.6 349.0,374.9 369.7,365.1 390.3,358.1 411.0,351.1 431.7,342.9 452.4,334.7 473.1,326.5 493.8,315.4 514.5,311.3 535.2,302.3 555.9,295.7 576.6,287.9 597.2,277.7 617.9,268.7 638.6,258.8 659.3,251.4 680.0,241.2" fill="none" stroke="#9467bd" stroke-width="2.2"/>
<polyline points="80.0,448.4 100.7,446.3 121.4,444.7 142.1,443.0 162.8,441.0 183.4,438.5 204.1,436.1 224.8,435.2 245.5,432.8 266.2,431.5 286.9,429.9 307.6,428.3 328.3,427.8 349.0,424.6 369.7,423.7 390.3,419.6 411.0,418.0 431.7,416.8 452.4,413.1 473.1,411.4 493.8,410.2 514.5,405.3 535.2,404.5 555.9,401.6 576.6,399.5 597.2,397.1 617.9,393.8 638.6,393.4 659.3,391.3 680.0,385.6" fill="none" stroke="#8c564b" stroke-width="2.2"/>
<line x1="702" y1="55" x2="734" y2="55" stroke="#1f77b4" stroke-width="3"/>
<text x="744" y="59" font-family="Arial" font-size="12">std quick</text>
<line x1="702" y1="81" x2="734" y2="81" stroke="#ff7f0e" stroke-width="3"/>
<text x="744" y="85" font-family="Arial" font-size="12">std merge</text>
<line x1="702" y1="107" x2="734" y2="107" stroke="#2ca02c" stroke-width="3"/>
<text x="744" y="111" font-family="Arial" font-size="12">str quick</text>
<line x1="702" y1="133" x2="734" y2="133" stroke="#d62728" stroke-width="3"/>
<text x="744" y="137" font-family="Arial" font-size="12">str merge</text>
<line x1="702" y1="159" x2="734" y2="159" stroke="#9467bd" stroke-width="3"/>
<text x="744" y="163" font-family="Arial" font-size="12">MSD radix</text>
<line x1="702" y1="185" x2="734" y2="185" stroke="#8c564b" stroke-width="3"/>
<text x="744" y="189" font-family="Arial" font-size="12">MSD+quick</text>
<text x="380.0" y="502" font-family="Arial" font-size="12" text-anchor="middle">array size</text>
</svg>