<svg xmlns="http://www.w3.org/2000/svg" width="920" height="520" viewBox="0 0 920 520">
<rect width="100%" height="100%" fill="white"/>
<text x="80" y="28" font-family="Arial" font-size="20" font-weight="700">reverse_sorted: character operations</text>
<line x1="80" y1="450" x2="680" y2="450" stroke="#333"/>
<line x1="80" y1="45" x2="80" y2="450" stroke="#333"/>
<line x1="80" y1="450.0" x2="680" y2="450.0" stroke="#e6e6e6"/>
<text x="72" y="454.0" font-family="Arial" font-size="11" text-anchor="end">0</text>
<line x1="80" y1="369.0" x2="680" y2="369.0" stroke="#e6e6e6"/>
<text x="72" y="373.0" font-family="Arial" font-size="11" text-anchor="end">984786</text>
<line x1="80" y1="288.0" x2="680" y2="288.0" stroke="#e6e6e6"/>
<text x="72" y="292.0" font-family="Arial" font-size="11" text-anchor="end">1969573</text>
<line x1="80" y1="207.0" x2="680" y2="207.0" stroke="#e6e6e6"/>
<text x="72" y="211.0" font-family="Arial" font-size="11" text-anchor="end">2954359</text>
<line x1="80" y1="126.0" x2="680" y2="126.0" stroke="#e6e6e6"/>
<text x="72" y="130.0" font-family="Arial" font-size="11" text-anchor="end">3939146</text>
<line x1="80" y1="45.0" x2="680" y2="45.0" stroke="#e6e6e6"/>
<text x="72" y="49.0" font-family="Arial" font-size="11" text-anchor="end">4923932</text>
<line x1="80.0" y1="450" x2="80.0" y2="455" stroke="#333"/>
<text x="80.0" y="474" font-family="Arial" font-size="11" text-anchor="middle">100</text>
<line x1="162.8" y1="450" x2="162.8" y2="455" stroke="#333"/>
<text x="162.8" y="474" font-family="Arial" font-size="11" text-anchor="middle">500</text>
<line x1="266.2" y1="450" x2="266.2" y2="455" stroke="#333"/>
<text x="266.2" y="474" font-family="Arial" font-size="11" text-anchor="middle">1000</text>
<line x1="369.7" y1="450" x2="369.7" y2="455" stroke="#333"/>
<text x="369.7" y="474" font-family="Arial" font-size="11" text-anchor="middle">1500</text>
<line x1="473.1" y1="450" x2="473.1" y2="455" stroke="#333"/>
<text x="473.1" y="474" font-family="Arial" font-size="11" text-anchor="middle">2000</text>
<line x1="576.6" y1="450" x2="576.6" y2="455" stroke="#333"/>
<text x="576.6" y="474" font-family="Arial" font-size="11" text-anchor="middle">2500</text>
<line x1="680.0" y1="450" x2="680.0" y2="455" stroke="#333"/>
<text x="680.0" y="474" font-family="Arial" font-size="11" text-anchor="middle">3000</text>
<polyline points="80.0,449.4 100.7,448.0 121.4,445.8 142.1,442.8 162.8,438.9 183.4,434.2 204.1,428.7 224.8,422.4 245.5,415.2 266.2,407.3 286.9,398.4 307.6,388.8 328.3,378.3 349.0,367.1 369.7,355.0 390.3,342.1 411.0,328.4 431.7,313.8 452.4,298.5 473.1,282.3 493.8,265.3 514.5,247.4 535.2,228.7 555.9,209.2 576.6,188.9 597.2,167.8 617.9,145.8 638.6,123.0 659.3,99.4 680.0,75.0" fill="none" stroke="#1f77b4" stroke-width="2.2"/>
<polyline points="80.0,449.9 100.7,449.9 121.4,449.8 142.1,449.7 162.8,449.7 183.4,449.6 204.1,449.5 224.8,449.4 245.5,449.4 266.2,449.3 286.9,449.2 307.6,449.1 328.3,449.0 349.0,449.0 369.7,448.9 390.3,448.8 411.0,448.8 431.7,448.7 452.4,448.6 473.1,448.6 493.8,448.5 514.5,448.4 535.2,448.3 555.9,448.2 576.6,448.1 597.2,448.0 617.9,447.9 638.6,447.8 659.3,447.8 680.0,447.7" fill="none" stroke="#ff7f0e" stroke-width="2.2"/>
<polyline points="80.0,449.9 100.7,449.8 121.4,449.6 142.1,449.4 162.8,449.3 183.4,449.0 204.1,448.8 224.8,448.5 245.5,448.3 266.2,447.9 286.9,447.6 307.6,447.3 328.3,446.9 349.0,446.5 369.7,446.2 390.3,445.8 411.0,445.3 431.7,444.9 452.4,444.4 473.1,443.9 493.8,443.3 514.5,442.8 535.2,442.5 555.9,441.7 576.6,441.1 597.2,440.5 617.9,439.9 638.6,439.1 659.3,438.3 680.0,437.8" fill="none" stroke="#2ca02c" stroke-width="2.2"/>
<polyline points="80.0,449.9 100.7,449.8 121.4,449.7 142.1,449.6 162.8,449.5 183.4,449.4 204.1,449.2 224.8,449.1 245.5,449.0 266.2,448.9 286.9,448.8 307.6,448.6 328.3,448.5 349.0,448.3 369.7,448.2 390.3,448.1 411.0,448.0 431.7,447.9 452.4,447.7 473.1,447.6 493.8,447.5 514.5,447.3 535.2,447.2 555.9,447.0 576.6,446.9 597.2,446.7 617.9,446.6 638.6,446.5 659.3,446.3 680.0,446.2" fill="none" stroke="#d62728" stroke-width="2.2"/>
<polyline points="80.0,450.0 100.7,449.9 121.4,449.9 142.1,449.8 162.8,449.8 183.4,449.8 204.1,449.7 224.8,449.7 245.5,449.6 266.2,449.6 286.9,449.6 307.6,449.5 328.3,449.5 349.0,449.4 369.7,449.4 390.3,449.4 411.0,449.3 431.7,449.3 452.4,449.3 473.1,449.2 493.8,449.2 514.5,449.1 535.2,449.1 555.9,449.1 576.6,449.0 597.2,449.0 617.9,448.9 638.6,448.9 659.3,448.9 680.0,448.8" fill="none" stroke="#9467bd" stroke-width="2.2"/>
<polyline points="80.0,449.9 100.7,449.7 121.4,449.5 142.1,449.4 162.8,449.2 183.4,449.1 204.1,448.9 224.8,448.8 245.5,448.6 266.2,448.4 286.9,448.3 307.6,448.1 328.3,447.9 349.0,447.8 369.7,447.6 390.3,447.5 411.0,447.3 431.7,447.2 452.4,447.0 473.1,446.9 493.8,446.7 514.5,446.6 535.2,446.4 555.9,446.2 576.6,446.1 597.2,445.9 617.9,445.8 638.6,445.6 659.3,445.5 680.0,445.3" fill="none" stroke="#8c564b" stroke-width="2.2"/>
<line x1="702" y1="55" x2="734" y2="55" stroke="#1f77b4" stroke-width="3"/>
<text x="744" y="59" font-family="Arial" font-size="12">std quick</text>
<line x1="702" y1="81" x2="734" y2="81" stroke="#ff7f0e" stroke-width="3"/>
<text x="744" y="85" font-family="Arial" font-size="12">std merge</text>
<line x1="702" y1="107" x2="734" y2="107" stroke="#2ca02c" stroke-width="3"/>
<text x="744" y="111" font-family="Arial" font-size="12">str quick</text>
<line x1="702" y1="133" x2="734" y2="133" stroke="#d62728" stroke-width="3"/>
<text x="744" y="137" font-family="Arial" font-size="12">str merge</text>
<line x1="702" y1="159" x2="734" y2="159" stroke="#9467bd" stroke-width="3"/>
<text x="744" y="163" font-family="Arial" font-size="12">MSD radix</text>
<line x1="702" y1="185" x2="734" y2="185" stroke="#8c564b" stroke-width="3"/>
<text x="744" y="189" font-family="Arial" font-size="12">MSD+quick</text>
<text x="380.0" y="502" font-family="Arial" font-size="12" text-anchor="middle">array size</text>
</svg>