<svg xmlns="http://www.w3.org/2000/svg" width="920" height="520" viewBox="0 0 920 520">
<rect width="100%" height="100%" fill="white"/>
<text x="80" y="28" font-family="Arial" font-size="20" font-weight="700">reverse_sorted: time, microseconds</text>
<line x1="80" y1="450" x2="680" y2="450" stroke="#333"/>
<line x1="80" y1="45" x2="80" y2="450" stroke="#333"/>
<line x1="80" y1="450.0" x2="680" y2="450.0" stroke="#e6e6e6"/>
<text x="72" y="454.0" font-family="Arial" font-size="11" text-anchor="end">0</text>
<line x1="80" y1="369.0" x2="680" y2="369.0" stroke="#e6e6e6"/>
<text x="72" y="373.0" font-family="Arial" font-size="11" text-anchor="end">1839</text>
<line x1="80" y1="288.0" x2="680" y2="288.0" stroke="#e6e6e6"/>
<text x="72" y="292.0" font-family="Arial" font-size="11" text-anchor="end">3678</text>
<line x1="80" y1="207.0" x2="680" y2="207.0" stroke="#e6e6e6"/>
<text x="72" y="211.0" font-family="Arial" font-size="11" text-anchor="end">5518</text>
<line x1="80" y1="126.0" x2="680" y2="126.0" stroke="#e6e6e6"/>
<text x="72" y="130.0" font-family="Arial" font-size="11" text-anchor="end">7357</text>
<line x1="80" y1="45.0" x2="680" y2="45.0" stroke="#e6e6e6"/>
<text x="72" y="49.0" font-family="Arial" font-size="11" text-anchor="end">9197</text>
<line x1="80.0" y1="450" x2="80.0" y2="455" stroke="#333"/>
<text x="80.0" y="474" font-family="Arial" font-size="11" text-anchor="middle">100</text>
<line x1="162.8" y1="450" x2="162.8" y2="455" stroke="#333"/>
<text x="162.8" y="474" font-family="Arial" font-size="11" text-anchor="middle">500</text>
<line x1="266.2" y1="450" x2="266.2" y2="455" stroke="#333"/>
<text x="266.2" y="474" font-family="Arial" font-size="11" text-anchor="middle">1000</text>
<line x1="369.7" y1="450" x2="369.7" y2="455" stroke="#333"/>
<text x="369.7" y="474" font-family="Arial" font-size="11" text-anchor="middle">1500</text>
<line x1="473.1" y1="450" x2="473.1" y2="455" stroke="#333"/>
<text x="473.1" y="474" font-family="Arial" font-size="11" text-anchor="middle">2000</text>
<line x1="576.6" y1="450" x2="576.6" y2="455" stroke="#333"/>
<text x="576.6" y="474" font-family="Arial" font-size="11" text-anchor="middle">2500</text>
<line x1="680.0" y1="450" x2="680.0" y2="455" stroke="#333"/>
<text x="680.0" y="474" font-family="Arial" font-size="11" text-anchor="middle">3000</text>
<polyline points="80.0,449.5 100.7,448.1 121.4,445.9 142.1,443.0 162.8,439.0 183.4,434.6 204.1,429.3 224.8,423.1 245.5,415.4 266.2,407.8 286.9,399.9 307.6,390.8 328.3,380.6 349.0,368.0 369.7,356.3 390.3,343.4 411.0,329.1 431.7,315.3 452.4,299.6 473.1,281.8 493.8,261.0 514.5,217.9 535.2,222.9 555.9,205.9 576.6,183.7 597.2,161.7 617.9,140.7 638.6,124.6 659.3,100.6 680.0,75.0" fill="none" stroke="#1f77b4" stroke-width="2.2"/>
<polyline points="80.0,449.3 100.7,448.7 121.4,447.8 142.1,447.2 162.8,446.2 183.4,445.3 204.1,444.5 224.8,443.6 245.5,442.4 266.2,441.5 286.9,440.5 307.6,439.5 328.3,438.4 349.0,437.6 369.7,436.2 390.3,435.2 411.0,434.0 431.7,433.0 452.4,431.7 473.1,430.6 493.8,429.6 514.5,426.6 535.2,427.4 555.9,425.6 576.6,424.8 597.2,423.5 617.9,422.6 638.6,421.1 659.3,420.1 680.0,419.2" fill="none" stroke="#ff7f0e" stroke-width="2.2"/>
<polyline points="80.0,450.0 100.7,449.9 121.4,449.7 142.1,449.6 162.8,449.5 183.4,449.3 204.1,449.2 224.8,449.0 245.5,448.8 266.2,448.6 286.9,448.3 307.6,448.3 328.3,448.1 349.0,447.6 369.7,447.4 390.3,447.2 411.0,446.9 431.7,446.6 452.4,446.2 473.1,445.8 493.8,445.1 514.5,444.5 535.2,444.8 555.9,444.1 576.6,443.7 597.2,443.4 617.9,443.0 638.6,442.1 659.3,441.9 680.0,441.5" fill="none" stroke="#2ca02c" stroke-width="2.2"/>
<polyline points="80.0,449.4 100.7,448.7 121.4,447.9 142.1,447.1 162.8,446.1 183.4,445.4 204.1,444.2 224.8,443.2 245.5,442.6 266.2,441.5 286.9,440.0 307.6,440.0 328.3,438.7 349.0,437.5 369.7,436.3 390.3,435.1 411.0,433.9 431.7,433.0 452.4,431.6 473.1,430.4 493.8,429.3 514.5,423.9 535.2,426.9 555.9,425.4 576.6,424.5 597.2,423.3 617.9,422.3 638.6,421.0 659.3,419.7 680.0,418.7" fill="none" stroke="#d62728" stroke-width="2.2"/>
<polyline points="80.0,449.3 100.7,448.5 121.4,447.9 142.1,447.3 162.8,446.6 183.4,445.8 204.1,445.2 224.8,444.5 245.5,443.7 266.2,443.0 286.9,442.4 307.6,442.2 328.3,441.1 349.0,440.2 369.7,439.6 390.3,438.9 411.0,438.2 431.7,437.5 452.4,436.7 473.1,435.8 493.8,435.1 514.5,434.6 535.2,433.3 555.9,432.9 576.6,432.1 597.2,431.2 617.9,430.5 638.6,429.6 659.3,429.1 680.0,428.2" fill="none" stroke="#9467bd" stroke-width="2.2"/>
<polyline points="80.0,449.8 100.7,449.6 121.4,449.3 142.1,449.0 162.8,448.8 183.4,448.5 204.1,448.3 224.8,448.0 245.5,447.5 266.2,447.4 286.9,447.1 307.6,447.1 328.3,446.7 349.0,446.2 369.7,446.1 390.3,445.8 411.0,445.4 431.7,445.2 452.4,445.0 473.1,444.7 493.8,444.3 514.5,444.1 535.2,443.1 555.9,443.4 576.6,443.2 597.2,443.0 617.9,442.7 638.6,442.3 659.3,442.2 680.0,441.8" fill="none" stroke="#8c564b" stroke-width="2.2"/>
<line x1="702" y1="55" x2="734" y2="55" stroke="#1f77b4" stroke-width="3"/>
<text x="744" y="59" font-family="Arial" font-size="12">std quick</text>
<line x1="702" y1="81" x2="734" y2="81" stroke="#ff7f0e" stroke-width="3"/>
<text x="744" y="85" font-family="Arial" font-size="12">std merge</text>
<line x1="702" y1="107" x2="734" y2="107" stroke="#2ca02c" stroke-width="3"/>
<text x="744" y="111" font-family="Arial" font-size="12">str quick</text>
<line x1="702" y1="133" x2="734" y2="133" stroke="#d62728" stroke-width="3"/>
<text x="744" y="137" font-family="Arial" font-size="12">str merge</text>
<line x1="702" y1="159" x2="734" y2="159" stroke="#9467bd" stroke-width="3"/>
<text x="744" y="163" font-family="Arial" font-size="12">MSD radix</text>
<line x1="702" y1="185" x2="734" y2="185" stroke="#8c564b" stroke-width="3"/>
<text x="744" y="189" font-family="Arial" font-size="12">MSD+quick</text>
<text x="380.0" y="502" font-family="Arial" font-size="12" text-anchor="middle">array size</text>
</svg>